<svg xmlns="http://www.w3.org/2000/svg" xmlns:xlink="http://www.w3.org/1999/xlink" width="38" height="38" viewBox="0 0 38 38">
  <defs>
    <clipPath id="clip-dark-light">
      <rect width="38" height="38"/>
    </clipPath>
  </defs>
  <g id="dark-light" clip-path="url(#clip-dark-light)">
    <g id="dark-light-2" data-name="dark-light" transform="translate(-373 -261)">
      <g id="dark-light-3" data-name="dark-light">
        <path id="light-dark" d="M12,2A10,10,0,1,1,2,12,10.011,10.011,0,0,1,12,2Zm0-2A12,12,0,1,0,24,12,12,12,0,0,0,12,0Zm0,4a8,8,0,0,0,0,16Z" transform="translate(380 268)"/>
      </g>
      <path id="Subtração_1" data-name="Subtração 1" d="M19,38,19,38l-1.781-3.025a3.439,3.439,0,0,0-4.657-1.247L9.5,35.454,9.468,31.94a3.453,3.453,0,0,0-3.409-3.409L2.545,28.5l1.73-3.059a3.456,3.456,0,0,0-1.248-4.658L0,19l3.027-1.783a3.457,3.457,0,0,0,1.248-4.658L2.545,9.5l3.514-.033A3.453,3.453,0,0,0,9.468,6.059L9.5,2.546l3.058,1.73a3.439,3.439,0,0,0,1.691.447A3.458,3.458,0,0,0,17.216,3.03L19,0V6.333h-.046a12.667,12.667,0,1,0,0,25.334H19V38Z" transform="translate(411 299) rotate(180)"/>
    </g>
  </g>
</svg>
