<svg xmlns="http://www.w3.org/2000/svg" xmlns:xlink="http://www.w3.org/1999/xlink" width="422" height="255" viewBox="0 0 422 255">
  <defs>
    <clipPath id="clip-mesa">
      <rect width="422" height="255"/>
    </clipPath>
  </defs>
  <g id="mesa" clip-path="url(#clip-mesa)">
    <rect id="pe4" width="14" height="18" transform="translate(40 218)" fill="#7c2d29"/>
    <rect id="pe3" width="14" height="18" transform="translate(284 218)" fill="#7c2d29"/>
    <rect id="pe2" width="16" height="16" transform="translate(132 218)" fill="#993223"/>
    <rect id="pe1" width="16" height="16" transform="translate(376 218)" fill="#993223"/>
    <path id="lateral-esq" d="M0,0H127a0,0,0,0,1,0,0V190a10,10,0,0,1-10,10H10A10,10,0,0,1,0,190V0A0,0,0,0,1,0,0Z" transform="translate(32 19)" fill="#7c2d29"/>
    <path id="lateral-dir" d="M0,0H127a0,0,0,0,1,0,0V190a10,10,0,0,1-10,10H10A10,10,0,0,1,0,190V0A0,0,0,0,1,0,0Z" transform="translate(276 19)" fill="#7c2d29"/>
    <path id="frente" d="M0,0H251a0,0,0,0,1,0,0V75a10,10,0,0,1-10,10H10A10,10,0,0,1,0,75V0A0,0,0,0,1,0,0Z" transform="translate(152 19)" fill="#993223"/>
    <rect id="borda" width="385" height="21" rx="7" transform="translate(23 16)" fill="#7c2d29"/>
    <path id="borda-frente" d="M7,0H249a7,7,0,0,1,7,7v6a3,3,0,0,1-3,3H7A7,7,0,0,1,0,9V7A7,7,0,0,1,7,0Z" transform="translate(152 16)" fill="#993223"/>
    <rect id="Retângulo_1" data-name="Retângulo 1" width="24" height="10" rx="4" transform="translate(35 235)" fill="#7c2d29"/>
    <rect id="Retângulo_2" data-name="Retângulo 2" width="24" height="10" rx="4" transform="translate(372 233)" fill="#7c2d29"/>
    <rect id="Retângulo_3" data-name="Retângulo 3" width="24" height="10" rx="4" transform="translate(279 235)" fill="#7c2d29"/>
    <rect id="Retângulo_4" data-name="Retângulo 4" width="24" height="10" rx="4" transform="translate(128 233)" fill="#7c2d29"/>
  </g>
</svg>
